{"title":"O Cangaceiro.1953.[FilmesEpicos.com]","uid":5667163,"size":734011392,"categoryP":"video","categoryS":"movies","magnet":"?xt=urn:btih:22c7654ae78531fe3a083dc3f2e35b40643909c4&amp;dn=O+Cangaceiro.1953.%5BFilmesEpicos.com%5D&amp;tr=udp%3A%2F%2Ftracker.openbittorrent.com%3A80&amp;tr=udp%3A%2F%2Fopen.demonii.com%3A1337&amp;tr=udp%3A%2F%2Ftracker.coppersurfer.tk%3A6969&amp;tr=udp%3A%2F%2Fexodus.desync.com%3A6969","seeders":3,"leechers":1,"uploader":"RodrigoRJ","files":-1,"time":1278189092,"description":"Sinopse:\nO bando de cangaceiros do capitÃƒÆ’Ã‚Â£o Gaudino semeia o terror pela caatinga nordestina. A professora Maria ClÃƒÆ’Ã‚Â³dia, raptada durante um assalto do grupo, se apaixona pelo pacÃƒÆ’Ã‚Â­fico Teodoro. O forte amor entre os dois gera grande conflito a turma. O Cangaceiro ganhou o prÃƒÆ’Ã‚Âªmio de melhor filme de aventura e de melhor trilha sonora com a mÃƒÆ’Ã‚Âºsica &quot;OlÃƒÆ’Ã‚Âª muiÃƒÆ’Ã‚Â© rendeira&quot;, interpretada pela tambÃƒÆ’Ã‚Â©m atriz Vanja Orico no Festival Internacional de Cannes. O sucesso em Cannes levou o filme para mais de 80 paÃƒÆ’Ã‚Â­ses e ele foi vendido para a Columbia Pictures. SÃƒÆ’Ã‚Â³ na FranÃƒÆ’Ã‚Â§a, ficou cinco anos em cartaz. O filme foi filmado em Vargem Grande do Sul, interior do estado de SÃƒÆ’Ã‚Â£o Paulo. Segundo o diretor, a paisagem da cidade se parecia muito com a nordestina. O cangaceiro, filme realizado em 1953, foi um dos maiores sucessos do cinema brasileiro de todos os tempos. Escrito e dirigido por Lima Barreto, com diÃƒÆ’Ã‚Â¡logos criados por Rachel de Queiroz, O cangaceiro foi o primeiro filme brasileiro a conquistar as telas do mundo. Considerado atÃƒÆ’Ã‚Â© hoje o melhor filme produzido pela Companhia CinematogrÃƒÆ’Ã‚Â¡fica Vera Cruz, sua histÃƒÆ’Ã‚Â³ria se inspirava na lendÃƒÆ’Ã‚Â¡ria figura de LampiÃƒÆ’Ã‚Â£o\n\n=============================================\n\nElenco:\nAlberto Ruschel (Teodoro)\nMarisa Prado (OlÃƒÆ’Ã‚Â­via)\nMilton Ribeiro (Galdino)\nVanja Orico (Maria ClÃƒÆ’Ã‚Â³dia)\nAdoniran Barbosa (ManÃƒÆ’Ã‚Â© Mole)\nMaria Luiza Splendore\nNeusa Veras\nPedro Visgo \n\n=============================================\n\n\nFormat                           : AVI\nFormat/Info                      : Audio Video Interleave\nFile size                        : 700 MiB\nDuration                         : 1h 32mn\nOverall bit rate                 : 1 058 Kbps\nWriting application              : VirtualDubMod 1.5.4.1 (build 2178/release)\nWriting library                  : VirtualDubMod build 2178/release\n\nVideo\nID                               : 0\nFormat                           : MPEG-4 Visual\nFormat profile                   : Advanced Simple@L5\nFormat settings, BVOP            : Yes\nFormat settings, QPel            : No\nFormat settings, GMC             : No warppoints\nFormat settings, Matrix          : Custom\nCodec ID                         : XVID\nCodec ID/Hint                    : XviD\nDuration                         : 1h 32mn\nBit rate                         : 942 Kbps\nWidth                            : 496 pixels\nHeight                           : 368 pixels\nDisplay aspect ratio             : 4:3\nFrame rate                       : 23.976 fps\nColor space                      : YUV\nChroma subsampling               : 4:2:0\nBit depth                        : 8 bits\nScan type                        : Progressive\nBits/(Pixel*Frame)               : 0.215\nStream size                      : 623 MiB (89%)\nWriting library                  : XviD 1.2.0.dev47 (UTC 2006-11-01)\n\nAudio\nID                               : 1\nFormat                           : MPEG Audio\nFormat version                   : Version 1\nFormat profile                   : Layer 3\nMode                             : Joint stereo\nCodec ID                         : 55\nCodec ID/Hint                    : MP3\nDuration                         : 1h 32mn\nBit rate mode                    : Variable\nBit rate                         : 103 Kbps\nNominal bit rate                 : 128 Kbps\nChannel(s)                       : 2 channels\nSampling rate                    : 48.0 KHz\nStream size                      : 68.4 MiB (10%)\nAlignment                        : Aligned on interleaves\nInterleave, duration             : 24 ms (0.58 video frame)\nInterleave, preload duration     : 538 ms\nWriting library                  : LAME3.97 \nEncoding settings                : -m j -V 4 -q 2 -lowpass 17 --abr 128\n\n","torrent":{"xt":"urn:btih:22c7654ae78531fe3a083dc3f2e35b40643909c4","amp;dn":"O+Cangaceiro.1953.%5BFilmesEpicos.com%5D","amp;tr":["udp%3A%2F%2Ftracker.openbittorrent.com%3A80","udp%3A%2F%2Fopen.demonii.com%3A1337","udp%3A%2F%2Ftracker.coppersurfer.tk%3A6969","udp%3A%2F%2Fexodus.desync.com%3A6969"],"infoHash":"22c7654ae78531fe3a083dc3f2e35b40643909c4","infoHashBuffer":{"type":"Buffer","data":[34,199,101,74,231,133,49,254,58,8,61,195,242,227,91,64,100,57,9,196]},"announce":[],"urlList":[]}}